# xmcd
#
# Track frame offsets:
# 150
# 18759
# 42620
# 55453
# 85139
# 105112
# 131703
# 155482
# 168360
# 191492
# 240874
# 256414
#
# Disc length: 3895 seconds
#
#
# Revision: 0
# Processed by: cddbd v1.5.2PL0 Copyright (c) Steve Scherf et al.
# Submitted via: FreeRIP 2.951 
#
DISCID=900f350c
DTITLE=Miles Davis - Miles Davis - Miles Ultimate CD5
DYEAR=2016
DGENRE=Blues
TTITLE0=Red China Blues
TTITLE1=On The Corner (Take 4)
TTITLE2=Miles Runs the Voodoo Down (45-rpm single edit)
TTITLE3=Prelude, Pt. 2
TTITLE4=John McLaughlin
TTITLE5=Honky Tonk
TTITLE6=Black Satin
TTITLE7=Spanish Key (single)
TTITLE8=Water Babies
TTITLE9=Duran
TTITLE10=Sanctuary (Live at Fillmore East, New York, NY - June 19, 1970)
TTITLE11=Willie Nelson - The Theme (Live)
EXTD=Audio CD (23. September 2016) \nErscheinungsdatum: 23. September 2016 \nAnzahl Disks/Tonträger: 5 \nFormat: Import, Box-Set \nLabel: Sony Music Entertainment \nASIN: B01K0ZT29E
EXTT0=
EXTT1=
EXTT2=
EXTT3=
EXTT4=
EXTT5=
EXTT6=
EXTT7=
EXTT8=
EXTT9=
EXTT10=
EXTT11=
PLAYORDER=
